<?xml version="1.0" standalone="no"?>
<!DOCTYPE svg PUBLIC "-//W3C//DTD SVG 20010904//EN"
 "http://www.w3.org/TR/2001/REC-SVG-20010904/DTD/svg10.dtd">
<svg version="1.0" xmlns="http://www.w3.org/2000/svg"
 width="5632.000000pt" height="3072.000000pt" viewBox="0 0 5632.000000 3072.000000"
 preserveAspectRatio="xMidYMid meet">

<g transform="translate(0.000000,3072.000000) scale(0.100000,-0.100000)"
fill="#000000" stroke="none">
<path d="M0 15360 l0 -15360 28160 0 28160 0 0 15360 0 15360 -28160 0 -28160
0 0 -15360z m43694 7778 c3 -18 49 -111 101 -206 52 -96 95 -175 95 -177 0 -2
31 -57 69 -122 37 -65 102 -184 144 -264 75 -145 226 -423 369 -679 111 -200
266 -483 316 -580 25 -47 71 -134 103 -193 33 -59 59 -110 59 -112 0 -4 249
-459 280 -510 10 -16 37 -66 60 -110 88 -165 113 -210 121 -219 26 -29 10 -51
-264 -356 -82 -91 -157 -166 -167 -168 -12 -2 -19 6 -24 29 -3 17 -21 57 -40
88 -38 63 -71 124 -159 291 -33 63 -63 120 -67 125 -4 6 -36 64 -70 130 -82
156 -191 357 -200 370 -4 6 -29 51 -55 100 -60 114 -122 230 -170 320 -21 39
-62 117 -93 175 -68 132 -193 357 -287 520 -40 69 -89 158 -111 198 -36 68
-54 88 -54 60 0 -19 -132 -276 -247 -483 -55 -99 -122 -220 -148 -270 -90
-170 -128 -240 -190 -350 -34 -60 -77 -137 -95 -170 -93 -167 -254 -461 -323
-587 -42 -79 -109 -197 -148 -263 -69 -115 -259 -462 -259 -471 0 -4 -48 -92
-165 -299 -99 -176 -169 -304 -216 -392 -24 -46 -47 -83 -51 -83 -4 0 -20 19
-35 43 -15 23 -99 152 -188 287 -269 409 -329 501 -387 595 -76 124 -161 266
-171 285 -31 61 -96 155 -107 155 -15 0 -17 -2 -156 -268 -59 -111 -110 -206
-114 -212 -4 -5 -49 -91 -100 -190 -51 -99 -129 -250 -173 -335 -44 -85 -83
-159 -87 -165 -4 -5 -45 -82 -90 -170 -136 -263 -213 -411 -310 -595 -51 -96
-113 -215 -137 -264 -25 -48 -67 -129 -95 -180 -93 -169 -224 -420 -360 -686
-74 -146 -150 -290 -168 -320 -38 -64 -80 -141 -80 -147 0 -14 45 28 317 292
667 649 1465 1446 1495 1493 26 41 57 51 77 24 70 -91 572 -792 631 -879 19
-29 38 -53 42 -53 4 0 35 37 68 83 140 191 353 481 469 636 68 91 168 229 222
306 54 77 146 207 206 288 59 82 128 176 152 210 25 34 103 140 175 236 72 95
135 181 141 190 30 49 58 81 70 81 8 0 19 -17 25 -39 7 -26 72 -119 195 -278
233 -300 256 -331 415 -538 72 -93 183 -237 248 -319 64 -81 124 -157 132
-168 15 -19 19 -16 87 69 39 48 81 99 93 113 12 14 60 70 105 125 46 55 135
163 199 240 64 77 180 219 258 315 78 96 173 213 213 260 77 92 252 303 345
415 32 39 127 153 211 253 85 101 176 212 203 245 28 34 120 145 206 247 86
102 199 239 252 305 164 205 446 544 468 565 3 3 46 54 95 115 l88 109 -119
115 c-65 62 -193 182 -284 265 -90 83 -212 196 -270 250 -58 54 -123 112 -145
128 -39 29 -61 55 -53 64 3 2 31 9 64 15 65 11 289 75 316 89 10 6 34 14 55
19 97 23 338 92 419 119 107 36 288 91 404 123 91 24 380 115 495 156 39 13
95 31 125 39 55 15 188 56 515 159 268 85 495 148 503 140 2 -2 -28 -163 -66
-357 -39 -194 -78 -393 -87 -443 -9 -49 -25 -137 -35 -195 -11 -58 -35 -188
-54 -290 -19 -102 -38 -203 -41 -225 -6 -35 -115 -614 -150 -795 -7 -36 -27
-141 -44 -235 -66 -362 -89 -481 -97 -504 -3 -8 -68 49 -177 156 -457 449
-737 713 -756 713 -5 0 -53 -53 -106 -117 -53 -65 -163 -199 -243 -297 -81
-99 -163 -198 -182 -220 -20 -23 -56 -66 -80 -96 -25 -30 -108 -129 -185 -220
-77 -91 -189 -226 -250 -300 -60 -74 -182 -220 -270 -323 -301 -355 -417 -492
-498 -592 -44 -55 -122 -147 -171 -205 -50 -58 -119 -139 -153 -180 -34 -41
-140 -169 -235 -285 -228 -276 -422 -512 -533 -649 -49 -61 -157 -192 -240
-291 -82 -99 -159 -193 -171 -209 l-20 -28 -30 35 c-16 19 -46 56 -66 83 -21
27 -80 103 -133 169 -52 66 -159 206 -238 310 -79 105 -168 219 -198 254 -30
35 -120 150 -200 255 -80 105 -150 191 -155 190 -5 0 -87 -106 -182 -235 -95
-129 -241 -326 -324 -439 -84 -113 -200 -272 -258 -355 -59 -82 -154 -212
-213 -287 -100 -127 -119 -158 -99 -158 9 0 15 -7 336 -455 272 -380 297 -415
367 -515 13 -19 51 -72 84 -118 59 -83 211 -301 354 -509 108 -156 216 -310
298 -423 69 -95 171 -240 291 -415 30 -44 64 -90 75 -102 l20 -23 1979 0 1979
0 -6 21 c-4 12 -22 48 -41 80 -19 31 -34 59 -34 62 0 3 -46 90 -103 193 -57
104 -116 216 -131 249 -42 89 -162 328 -308 615 -72 140 -213 419 -315 620
-102 201 -211 415 -243 475 -57 109 -255 499 -573 1125 -188 371 -253 497
-308 592 -22 36 -39 74 -39 83 0 19 33 64 130 176 177 206 223 261 253 306 18
26 36 49 40 51 5 1 92 -163 194 -365 102 -203 231 -458 288 -568 158 -308 313
-611 545 -1070 117 -231 278 -548 358 -705 80 -157 247 -487 372 -735 125
-247 247 -488 272 -535 25 -47 127 -247 228 -445 100 -198 238 -469 307 -603
69 -133 123 -247 121 -253 -3 -8 -1139 -11 -4308 -11 -2368 0 -4315 1 -4328 1
-22 1 -22 1 -5 29 10 15 52 72 94 127 41 55 97 132 124 170 27 39 63 90 80
115 17 25 55 80 84 123 l53 77 1233 0 c688 0 1236 4 1239 9 3 4 -22 45 -57 89
-82 106 -225 301 -279 382 -74 109 -138 200 -212 300 -38 52 -86 118 -107 145
-20 28 -56 79 -79 115 -49 74 -125 186 -155 227 -11 15 -103 144 -205 286
-102 142 -204 284 -227 315 -23 31 -59 83 -80 114 -21 32 -41 58 -45 58 -9 0
-26 -23 -273 -365 -208 -287 -232 -320 -426 -581 -74 -100 -170 -230 -213
-290 -120 -164 -276 -374 -542 -728 -131 -175 -246 -328 -254 -340 -54 -78
-273 -367 -283 -373 -7 -4 -7602 -7 -16879 -8 -14038 0 -16869 2 -16873 13 -7
19 -6 582 1 610 l6 22 16693 0 16693 0 18 28 c9 15 76 108 148 207 71 99 150
209 175 243 25 35 93 129 151 208 58 79 125 172 150 206 39 54 255 349 462
628 34 47 110 150 167 229 57 79 110 151 117 160 40 48 232 301 356 471 78
107 155 209 171 227 l28 32 -142 198 c-78 109 -155 216 -170 238 -16 22 -39
53 -51 68 l-24 29 -1304 -1306 -1305 -1306 -380 -2 c-209 0 -392 -2 -407 -3
-16 -1 -28 -1 -28 0 0 12 27 76 40 95 9 14 37 63 62 110 25 47 96 177 158 290
150 273 187 343 430 815 57 110 116 222 132 248 15 26 28 50 28 52 0 2 39 75
86 162 47 87 127 237 176 333 150 288 201 386 307 583 55 104 101 190 101 192
0 2 13 26 28 52 16 26 102 192 191 368 90 176 176 343 191 370 15 28 54 102
87 165 147 281 205 392 257 485 31 55 99 187 151 294 53 106 126 245 162 310
36 64 95 172 131 241 36 69 95 181 132 250 67 125 116 219 245 465 37 72 126
238 196 371 71 133 129 246 129 251 0 6 6 16 14 22 17 14 15 17 132 -169 46
-74 120 -191 164 -260 45 -69 124 -195 177 -280 52 -85 140 -227 196 -315 55
-88 125 -203 155 -255 30 -52 61 -101 67 -108 10 -11 27 13 85 120 41 73 91
165 113 203 22 39 80 142 129 230 50 88 93 165 98 170 4 6 31 55 60 110 131
250 216 405 324 593 20 34 52 90 72 125 20 34 81 145 136 247 55 102 106 192
113 200 6 8 32 53 57 100 83 156 146 271 316 580 74 135 167 304 207 375 86
152 205 393 205 412 0 26 18 4 24 -29z m-31214 -3193 c74 -8 167 -21 205 -29
39 -8 88 -17 110 -21 160 -25 462 -138 670 -250 246 -133 518 -365 680 -581
163 -217 249 -376 346 -639 134 -365 178 -898 109 -1315 -54 -328 -109 -490
-269 -784 -128 -236 -386 -532 -606 -697 -251 -187 -547 -335 -800 -398 -49
-12 -107 -27 -127 -32 -20 -5 -99 -18 -175 -29 -176 -25 -372 -25 -613 -1
-260 27 -405 62 -619 147 -231 93 -362 171 -631 374 -89 68 -261 244 -345 354
-211 276 -356 583 -425 901 -12 55 -28 127 -36 160 -30 125 -42 485 -23 681
13 133 52 364 78 459 11 39 27 96 36 128 35 125 180 421 279 567 100 148 114
166 211 268 118 124 228 218 370 314 242 165 396 243 620 314 44 14 96 32 115
39 41 16 292 62 406 74 127 13 289 12 434 -4z m-4430 -10 c298 -37 468 -75
700 -157 210 -74 490 -222 490 -258 0 -9 -21 -63 -46 -120 -25 -58 -56 -132
-69 -165 -12 -33 -51 -132 -87 -220 -36 -88 -77 -193 -92 -232 -15 -40 -32
-75 -37 -79 -5 -3 -33 16 -62 42 -61 55 -305 177 -437 219 -47 15 -94 31 -105
36 -11 5 -99 24 -195 44 -164 33 -189 35 -362 35 -197 0 -305 -14 -402 -51
-115 -45 -182 -87 -247 -155 -99 -105 -129 -182 -129 -327 l0 -102 41 -62 c54
-83 149 -167 234 -208 58 -27 262 -98 340 -118 11 -3 63 -17 115 -32 52 -15
145 -39 205 -55 425 -109 592 -164 795 -263 276 -134 468 -306 573 -512 74
-146 89 -191 118 -350 33 -181 35 -298 9 -465 -35 -230 -92 -380 -206 -553
-158 -236 -411 -431 -699 -537 -112 -41 -160 -54 -310 -85 -266 -53 -493 -65
-814 -41 -281 22 -468 56 -701 131 -285 92 -430 159 -625 288 -49 33 -110 76
-134 95 -40 33 -43 37 -37 73 3 21 27 82 52 136 26 54 60 127 76 163 16 36 52
113 79 171 27 58 49 109 49 113 0 23 85 186 97 186 7 0 48 -24 91 -54 69 -48
289 -186 297 -186 1 0 45 -20 96 -44 136 -63 281 -114 445 -155 148 -37 540
-53 766 -31 222 22 391 122 476 283 25 48 27 61 27 167 0 105 -2 119 -27 168
-66 127 -163 206 -343 277 -123 48 -494 157 -785 230 -412 104 -750 274 -961
484 -108 108 -169 197 -221 321 -49 116 -65 177 -83 311 -26 200 -15 432 31
610 16 67 69 185 126 283 121 209 343 416 588 549 158 86 484 180 710 206 126
14 464 12 590 -4z m14130 1 c328 -41 605 -123 840 -248 294 -156 455 -278 657
-498 178 -193 274 -342 392 -607 64 -144 136 -373 155 -488 73 -458 69 -772
-15 -1155 -29 -133 -41 -172 -99 -325 -52 -137 -152 -322 -258 -480 -196 -290
-520 -567 -861 -739 -261 -131 -525 -202 -861 -231 -220 -19 -285 -19 -468 0
-144 15 -168 20 -362 66 -334 79 -717 292 -1001 558 -85 79 -244 262 -305 351
-102 147 -219 391 -284 590 -85 258 -118 455 -127 755 -8 292 29 617 93 820
169 533 506 983 953 1273 47 30 98 64 113 74 15 10 30 18 33 18 4 0 32 15 63
33 168 97 569 216 799 236 149 14 422 12 543 -3z m-5780 -50 c930 -3 983 -4
1140 -25 91 -12 188 -25 217 -30 93 -17 250 -65 328 -101 176 -81 232 -110
314 -164 110 -73 287 -245 356 -347 232 -343 333 -784 280 -1219 -31 -250 -77
-418 -157 -575 -84 -166 -133 -236 -263 -373 -210 -223 -511 -382 -870 -459
l-120 -26 -617 -4 -618 -4 0 -660 0 -659 -22 -5 c-13 -3 -234 -4 -493 -3
l-470 3 -3 2332 c-2 1865 0 2331 10 2328 7 -3 452 -7 988 -9z m10385 -6 c396
-24 473 -32 610 -61 178 -39 253 -64 395 -130 209 -97 346 -194 493 -348 161
-170 326 -487 352 -677 4 -27 14 -87 23 -134 11 -61 15 -143 15 -295 -1 -178
-5 -232 -26 -358 -35 -201 -82 -337 -169 -489 -152 -265 -335 -449 -588 -588
-91 -50 -86 -45 -67 -71 38 -52 207 -310 272 -414 37 -60 82 -130 99 -155 17
-25 36 -54 43 -65 29 -49 92 -149 161 -255 41 -63 99 -154 128 -201 28 -47 95
-152 148 -232 53 -80 96 -150 96 -156 0 -8 -63 -12 -202 -13 -164 -1 -727 0
-840 2 -32 0 -60 39 -218 309 -8 14 -36 58 -61 96 -45 70 -381 620 -495 810
l-60 100 -442 3 c-416 2 -442 1 -442 -15 0 -10 -1 -306 -3 -658 l-2 -640 -186
-8 c-102 -4 -325 -4 -495 0 l-309 8 0 2315 0 2315 60 5 c113 10 1550 9 1710 0z
m5945 -5 c10 -6 11 -93 7 -426 -3 -230 -8 -423 -12 -429 -4 -7 -221 -10 -671
-10 l-664 0 -1 -1862 c-2 -2020 -1 -1894 -10 -1902 -3 -3 -223 -6 -490 -6
l-484 -1 -3 1886 -2 1885 -660 0 -660 0 0 433 c0 239 3 437 7 441 9 9 3627 1
3643 -9z m3742 -3 c4 -4 8 -199 8 -432 l1 -425 -1096 -3 -1097 -2 7 -493 6
-492 962 -1 962 -1 3 -428 2 -427 -967 3 -968 4 -3 -537 -2 -538 1130 0 1130
0 0 -429 0 -430 -252 -4 c-428 -7 -2964 -1 -2976 7 -10 6 -12 522 -9 2314 1
1269 6 2312 9 2317 7 12 3139 8 3150 -3z m-18942 -7582 c259 -21 445 -75 674
-195 129 -67 356 -252 356 -289 0 -8 -50 -71 -111 -141 l-112 -127 -40 47
c-50 58 -205 174 -301 225 -264 141 -661 177 -983 89 -142 -39 -283 -118 -425
-238 -172 -145 -239 -231 -345 -442 -69 -140 -87 -193 -120 -349 -48 -226 -34
-526 34 -755 109 -367 344 -662 650 -818 170 -86 260 -114 437 -134 134 -15
170 -16 284 -4 72 7 157 19 189 27 32 8 69 18 83 21 53 11 229 103 300 156 41
31 107 88 147 128 l73 71 103 -94 c57 -51 119 -104 137 -118 l33 -26 -32 -36
c-79 -90 -291 -249 -441 -331 -211 -114 -609 -188 -856 -158 -386 48 -641 148
-892 351 -206 166 -331 314 -446 528 -78 144 -115 242 -155 406 -43 178 -55
272 -54 456 1 263 41 492 124 710 32 83 128 260 191 355 95 141 306 338 473
442 117 74 361 174 499 205 202 46 324 55 526 38z m4713 -10 c224 -35 336 -69
512 -157 143 -71 164 -84 265 -162 264 -205 451 -458 544 -738 90 -271 120
-467 113 -736 -4 -166 -9 -213 -37 -342 -62 -292 -152 -502 -305 -710 -55 -74
-200 -221 -275 -278 -119 -90 -325 -206 -410 -232 -14 -4 -38 -13 -55 -20 -88
-38 -218 -67 -419 -96 -185 -25 -229 -24 -437 10 -395 66 -674 211 -940 488
-175 183 -305 407 -383 663 -102 332 -114 745 -31 1049 117 431 296 707 609
943 237 179 541 295 852 327 93 10 308 5 397 -9z m14035 -16 c82 -18 174 -51
227 -81 96 -54 220 -185 271 -285 63 -125 86 -358 50 -498 -18 -66 -73 -177
-130 -260 -41 -61 -150 -167 -244 -238 -93 -71 -272 -192 -284 -192 -20 0 -3
-30 53 -90 137 -148 541 -603 640 -720 58 -69 111 -125 118 -125 8 0 37 65 71
160 75 207 86 249 105 375 19 129 19 130 47 130 25 0 277 -65 285 -74 18 -18
-58 -351 -105 -459 -11 -23 -25 -58 -32 -77 -29 -78 -100 -222 -126 -255 -33
-44 -55 -12 209 -298 108 -118 197 -219 197 -224 0 -4 -41 -55 -90 -113 -50
-57 -90 -108 -90 -112 0 -41 -176 124 -357 335 -42 48 -79 87 -82 87 -4 0 -23
-16 -42 -36 -84 -88 -260 -215 -394 -284 -93 -48 -176 -75 -315 -101 -329 -61
-660 -16 -892 121 -297 177 -458 453 -458 786 0 202 74 394 220 569 86 104
308 294 463 398 l68 45 -54 63 c-61 73 -151 194 -191 257 -67 108 -136 345
-136 472 0 78 39 228 83 320 34 71 56 100 134 177 81 80 107 99 206 147 204
102 374 125 575 80z m-28222 -17 c1 -1 4 -75 7 -164 l6 -163 -907 -2 -907 -3
-3 -632 -2 -633 807 -2 808 -3 3 -162 2 -163 -803 0 -804 0 -7 -46 c-3 -26 -6
-359 -6 -740 l0 -694 -185 0 -184 0 2 1703 2 1702 350 5 c326 5 1816 2 1821
-3z m32874 -2 c261 -13 695 -199 907 -389 185 -164 339 -398 426 -646 72 -206
98 -366 100 -630 2 -288 -23 -458 -101 -690 -46 -137 -84 -213 -169 -340 -91
-137 -157 -215 -253 -298 -205 -176 -454 -304 -723 -372 -159 -41 -319 -48
-982 -45 -341 2 -644 4 -673 4 l-52 1 2 1703 3 1702 595 5 c582 5 748 4 920
-5z m7306 1 c11 -4 14 -34 14 -150 0 -79 -3 -151 -6 -160 -6 -14 -64 -16 -558
-16 l-551 0 0 -1537 0 -1538 -180 0 -180 0 -5 1535 c-4 1355 -7 1535 -20 1536
-8 1 -252 2 -541 2 l-526 2 3 48 c2 26 6 100 10 164 l6 118 621 2 c871 4 1896
1 1913 -6z m-39156 -1111 l6 -1110 27 -127 c39 -185 98 -317 193 -434 82 -100
142 -149 250 -203 110 -55 183 -78 301 -96 125 -18 193 -18 343 -1 201 24 350
90 478 211 142 134 206 250 261 470 38 152 43 285 48 1355 2 569 7 1037 10
1040 2 3 85 6 184 8 l179 4 -1 -1079 c0 -593 -5 -1109 -10 -1148 -64 -500
-219 -799 -519 -1004 -190 -130 -314 -174 -601 -216 -232 -33 -491 -4 -719 81
-138 51 -378 208 -461 302 -96 108 -221 326 -256 447 -87 301 -86 274 -90
1509 -2 593 -2 1085 1 1093 5 11 40 13 188 11 l183 -3 5 -1110z m3507 1109
c18 -4 37 -19 53 -42 14 -20 68 -93 120 -162 84 -110 150 -198 365 -490 28
-37 144 -193 259 -347 304 -404 316 -421 491 -658 88 -119 205 -276 259 -348
151 -200 365 -492 425 -580 30 -43 57 -80 61 -82 3 -2 8 604 9 1347 1 744 4
1355 7 1360 6 10 346 8 359 -2 7 -6 9 -581 7 -1699 l-2 -1691 -169 0 -168 0
-142 193 c-201 273 -542 733 -704 948 -75 101 -193 261 -262 354 -186 253
-450 611 -623 842 -84 113 -178 243 -208 289 -30 46 -57 84 -62 84 -4 0 -6
-612 -4 -1360 l2 -1360 -185 0 -185 0 -2 1698 c-2 933 -2 1700 0 1705 4 8 256
10 299 1z m7031 -1702 l2 -1702 -174 0 c-96 0 -181 3 -190 6 -13 5 -15 186
-15 1677 0 919 2 1681 5 1694 6 22 8 23 178 25 94 2 176 3 181 2 7 0 11 -577
13 -1702z m5081 1698 c31 -16 251 -297 380 -485 34 -49 120 -166 192 -260 71
-93 165 -217 207 -275 43 -58 132 -177 198 -265 66 -88 145 -197 176 -241 31
-45 202 -274 379 -510 177 -236 360 -483 406 -551 46 -67 87 -124 91 -127 4
-2 8 606 9 1351 0 745 4 1358 8 1361 10 10 353 13 360 3 7 -12 7 -3383 -1
-3390 -8 -8 -271 -14 -308 -6 -24 4 -42 21 -76 70 -25 35 -108 148 -185 250
-77 103 -223 298 -324 434 -101 135 -203 271 -226 301 -65 84 -488 657 -606
819 -57 79 -139 191 -181 250 -205 281 -337 467 -377 531 -25 38 -46 70 -47
70 -2 0 -2 -614 -1 -1365 l2 -1365 -186 0 -186 0 -7 105 c-12 180 -6 3278 6
3292 13 16 269 18 297 3z m4708 -2 c5 -7 17 -31 26 -53 9 -22 37 -89 62 -150
25 -60 61 -148 80 -195 35 -90 90 -221 105 -255 14 -29 136 -318 172 -405 17
-41 57 -133 88 -205 32 -71 70 -161 85 -200 31 -79 121 -300 135 -330 5 -11
40 -94 78 -185 38 -91 132 -309 209 -485 77 -176 179 -412 228 -525 112 -263
122 -286 151 -342 13 -26 24 -52 24 -58 0 -6 -69 -10 -195 -10 -182 0 -196 1
-215 20 -11 11 -20 24 -20 29 0 5 -13 39 -30 74 -16 36 -30 68 -30 72 0 4 -6
21 -14 38 -28 61 -96 226 -96 232 0 3 -8 25 -19 48 -34 76 -141 354 -141 366
0 8 -225 11 -842 11 -464 0 -853 3 -865 6 -17 5 -25 1 -32 -17 -6 -13 -29 -69
-51 -124 -23 -55 -45 -109 -50 -120 -5 -11 -22 -54 -38 -95 -44 -112 -177
-438 -201 -492 l-20 -48 -186 0 c-156 0 -187 2 -191 15 -5 12 34 111 126 320
5 11 26 61 46 110 20 50 58 140 84 200 26 61 60 142 75 180 45 114 152 366
178 420 13 28 43 97 67 155 23 58 68 166 100 240 31 74 92 223 135 330 137
348 176 443 230 570 29 69 71 170 94 225 22 55 68 165 102 245 33 80 76 181
94 225 18 44 42 101 54 128 l20 47 189 0 c140 0 192 -3 199 -12z m2293 -3 c6
-4 10 -553 10 -1527 0 -837 2 -1523 5 -1526 2 -2 391 -4 864 -3 l860 2 6 -33
c3 -18 5 -96 3 -173 l-3 -140 -1054 3 c-579 1 -1057 5 -1062 8 -11 6 0 3375
11 3389 9 11 343 11 360 0z m12704 -77 c78 -167 106 -229 106 -234 0 -3 8 -24
19 -47 33 -74 227 -531 281 -662 50 -123 151 -358 172 -405 11 -25 38 -85 58
-135 41 -97 135 -318 150 -350 18 -38 100 -235 100 -239 0 -6 191 -437 239
-539 22 -48 41 -90 41 -92 0 -5 145 -353 175 -420 48 -110 74 -178 69 -186 -6
-11 -364 -12 -381 -1 -11 7 -126 256 -157 342 -11 29 -122 290 -156 365 -17
38 -58 140 -64 158 -5 16 -55 17 -843 18 -461 1 -853 2 -870 4 -29 2 -34 -1
-42 -29 -9 -29 -71 -196 -90 -241 -5 -11 -18 -45 -29 -75 -72 -189 -194 -497
-211 -530 -7 -12 -36 -16 -147 -18 -77 -1 -164 1 -194 6 -47 7 -55 11 -52 27
3 17 53 145 82 210 5 11 26 61 46 110 20 50 71 171 114 270 75 172 167 390
263 615 24 58 66 159 92 225 26 66 87 212 135 325 48 113 108 259 134 325 49
124 89 223 137 335 15 36 47 115 72 175 24 61 63 153 85 205 22 52 59 140 82
195 23 55 46 105 50 110 4 6 31 70 60 143 l53 132 189 0 189 0 43 -92z m5550
86 c9 -3 16 -10 16 -16 0 -8 57 -146 105 -253 7 -16 32 -77 55 -135 59 -151
93 -232 183 -440 44 -102 99 -232 122 -290 79 -195 330 -797 440 -1050 29 -69
70 -163 90 -210 20 -47 43 -98 50 -115 8 -16 32 -75 55 -130 23 -55 48 -113
55 -130 148 -336 257 -606 250 -623 -5 -13 -22 -14 -112 -9 -58 4 -143 7 -188
7 l-82 0 -88 203 c-48 111 -95 220 -105 242 -74 174 -93 221 -123 300 -19 50
-38 100 -41 112 l-7 23 -855 2 c-562 2 -858 0 -864 -7 -4 -5 -33 -73 -63 -151
-31 -78 -72 -179 -92 -225 -20 -46 -40 -93 -45 -104 -4 -11 -13 -33 -19 -50
-5 -16 -39 -102 -75 -190 l-65 -160 -183 -2 c-101 -2 -189 1 -196 5 -12 8 16
84 104 279 8 17 14 34 14 38 0 3 8 25 19 48 19 44 63 147 129 307 21 52 61
147 87 210 43 104 156 368 191 447 8 17 14 34 14 38 0 4 6 21 14 38 8 18 31
75 51 127 21 52 55 136 76 185 80 189 182 434 224 540 24 61 73 182 110 270
37 88 72 176 80 195 12 34 99 235 134 315 10 22 47 108 81 190 34 83 67 156
72 163 8 9 58 12 188 12 98 0 185 -3 194 -6z m4147 -9069 c4 -5 19 -46 33 -90
37 -110 94 -221 135 -264 19 -20 43 -52 54 -71 10 -19 38 -55 61 -80 23 -25
55 -62 71 -84 34 -46 210 -179 280 -211 28 -13 69 -26 92 -30 24 -4 58 -17 77
-30 19 -13 56 -33 81 -44 61 -27 58 -49 -10 -68 -27 -8 -57 -21 -65 -28 -8 -7
-26 -16 -40 -20 -73 -22 -273 -145 -363 -223 -54 -47 -79 -54 -76 -19 1 12 1
113 1 223 l-2 202 -220 1 c-204 1 -220 0 -222 -16 0 -10 -1 -111 -2 -225 l-1
-208 204 0 c112 0 202 2 200 4 -2 3 -91 6 -197 7 -105 1 -192 6 -192 11 0 4
18 8 41 8 24 0 38 4 34 10 -3 6 -22 8 -41 6 l-34 -4 0 78 c0 43 4 80 9 82 9 3
14 40 12 86 -1 13 -5 20 -11 17 -6 -4 -9 10 -9 37 2 30 3 35 6 16 5 -32 23
-37 30 -9 3 12 11 17 19 14 8 -3 21 0 29 7 8 6 18 9 23 6 5 -3 26 -8 47 -12
28 -4 36 -2 33 8 -3 7 -21 13 -43 14 -22 1 -43 8 -50 17 -6 8 -27 17 -46 20
-18 2 49 4 151 5 l185 1 -42 -19 c-46 -22 -59 -35 -43 -45 5 -3 10 -1 10 5 0
7 7 10 14 7 9 -4 17 2 21 14 4 10 11 19 17 19 5 0 8 -6 5 -14 -7 -18 24 -15
40 4 10 12 12 2 13 -54 l0 -70 -20 22 c-12 12 -23 22 -25 22 -12 0 -3 -21 19
-45 20 -21 23 -33 19 -63 -3 -20 -11 -40 -17 -44 -7 -5 -6 -8 4 -8 12 0 15
-13 16 -57 0 -32 4 -75 8 -95 6 -34 3 -41 -42 -90 -26 -30 -68 -87 -93 -128
-92 -151 -128 -216 -134 -242 -4 -15 -13 -32 -21 -39 -7 -6 -17 -33 -20 -60
-8 -56 -11 -60 -41 -48 -15 5 -24 20 -29 45 -4 21 -15 52 -25 68 -10 17 -29
60 -43 96 -34 91 -52 124 -114 215 -68 99 -105 140 -157 173 -42 26 -99 73
-192 155 -30 27 -74 57 -96 67 -23 9 -67 29 -97 43 -30 14 -68 29 -83 32 -15
4 -30 11 -33 16 -3 5 -18 9 -34 9 -35 0 -40 7 -33 43 6 28 7 29 52 22 52 -7
85 -30 63 -44 -31 -19 28 -61 86 -61 7 0 20 -7 29 -15 16 -17 42 -13 80 11 17
11 22 23 21 55 0 45 -17 67 -68 94 -17 9 -28 21 -24 26 4 8 -1 9 -17 4 -22 -7
-23 -7 -9 10 18 22 127 75 153 75 28 0 127 81 237 193 105 109 160 180 160
211 0 10 14 41 30 68 17 26 30 53 30 58 0 6 7 10 15 10 8 0 15 -8 15 -19 0
-10 3 -39 6 -65 6 -40 5 -46 -10 -40 -10 4 -16 1 -16 -7 0 -11 29 -14 135 -16
78 -1 135 2 135 8 0 5 -6 9 -14 9 -7 0 -16 14 -19 33 -3 18 -19 56 -35 84 -17
29 -34 69 -38 89 -4 21 -18 49 -32 63 -24 24 -26 24 -32 6 -10 -28 -18 -5 -13
36 5 36 28 49 44 24z m-66 -148 c-7 -10 -11 -26 -8 -37 3 -10 0 -21 -6 -24
-15 -9 -15 59 0 86 9 16 13 18 19 7 5 -7 3 -21 -5 -32z m-38 -39 c-3 -8 -6 -5
-6 6 -1 11 2 17 5 13 3 -3 4 -12 1 -19z m88 1 c-22 -18 -29 -19 -35 -8 -11 16
6 29 39 29 l24 0 -28 -21z m110 -139 c3 -5 -1 -10 -9 -10 -8 0 -18 5 -21 10
-3 6 1 10 9 10 8 0 18 -4 21 -10z m222 -82 c-3 -7 -5 -2 -5 12 0 14 2 19 5 13
2 -7 2 -19 0 -25z m3 -85 c0 -21 -3 -24 -9 -14 -5 8 -7 20 -4 28 8 21 13 15
13 -14z m-985 -443 c3 -5 1 -10 -4 -10 -6 0 -11 5 -11 10 0 6 2 10 4 10 3 0 8
-4 11 -10z"/>
<path d="M12032 19030 c-134 -24 -184 -41 -317 -106 -177 -86 -343 -221 -472
-384 -124 -157 -226 -366 -268 -550 -9 -41 -24 -104 -33 -140 -13 -52 -17
-116 -16 -320 0 -269 8 -328 64 -500 134 -407 400 -709 761 -863 168 -71 347
-107 535 -107 141 0 220 12 400 63 72 20 243 109 349 180 100 68 256 218 329
317 118 159 213 410 246 650 17 118 18 406 1 515 -22 154 -71 355 -100 420 -5
11 -21 47 -35 79 -50 112 -194 306 -305 409 -78 71 -218 172 -295 210 -53 26
-207 86 -281 108 -59 19 -251 39 -354 38 -58 0 -152 -9 -209 -19z"/>
<path d="M21830 19040 c-243 -18 -415 -73 -593 -188 -258 -166 -428 -376 -546
-674 -103 -261 -136 -626 -87 -950 51 -328 253 -683 506 -888 120 -97 322
-202 440 -229 183 -41 215 -45 366 -49 134 -2 175 0 255 18 240 53 395 129
591 287 158 129 328 365 394 551 15 43 31 82 36 88 14 20 57 246 67 364 26
280 -6 559 -89 775 -101 261 -209 422 -387 575 -105 91 -202 159 -288 202
-174 87 -441 134 -665 118z"/>
<path d="M16392 18220 l3 -790 400 0 c220 1 447 5 504 10 138 12 258 43 356
91 135 66 163 87 229 166 70 84 107 163 141 302 25 103 27 124 22 235 -13 270
-111 484 -282 613 -67 51 -115 74 -225 108 -169 53 -199 55 -692 55 l-459 0 3
-790z"/>
<path d="M26012 19010 c-4 -3 -5 -358 -2 -790 l5 -785 345 -3 c471 -4 702 16
870 76 66 23 204 116 269 181 157 156 225 487 156 756 -70 271 -229 434 -500
512 -147 42 -199 46 -673 52 -255 3 -467 4 -470 1z"/>
<path d="M21812 11929 c-143 -15 -275 -56 -410 -126 -78 -41 -259 -181 -333
-260 -135 -142 -285 -430 -314 -600 -4 -21 -14 -74 -23 -118 -26 -125 -23
-477 6 -607 45 -207 114 -369 218 -515 66 -92 223 -254 312 -320 147 -109 343
-190 522 -214 123 -17 334 -17 430 0 264 46 530 185 694 362 240 259 352 527
377 900 13 186 3 355 -27 489 -63 278 -222 553 -412 712 -151 127 -213 165
-377 231 -154 62 -433 90 -663 66z"/>
<path d="M35947 11960 c-175 -44 -297 -188 -321 -377 -25 -201 43 -343 315
-657 15 -17 100 33 259 152 197 148 292 273 324 426 37 177 -65 369 -232 437
-47 18 -79 23 -182 25 -69 2 -142 -1 -163 -6z"/>
<path d="M35783 10464 c-151 -103 -327 -268 -400 -374 -71 -105 -103 -217
-103 -370 0 -165 42 -264 164 -385 136 -136 262 -191 457 -202 185 -10 358 19
519 89 116 50 204 107 300 196 l74 68 -85 90 c-91 97 -131 141 -254 278 -72
80 -150 171 -468 539 -56 65 -109 117 -119 117 -9 0 -47 -21 -85 -46z"/>
<path d="M39790 10552 l0 -1370 153 -7 c84 -4 315 -5 513 -2 386 5 426 9 638
72 198 58 282 101 430 219 219 174 365 418 438 731 21 91 23 122 23 355 -1
241 -2 261 -27 360 -75 298 -165 469 -342 646 -166 166 -355 268 -621 336 -75
20 -116 21 -642 25 l-563 4 0 -1369z"/>
<path d="M29201 11850 c-16 -39 -74 -193 -121 -325 -24 -66 -49 -133 -56 -150
-7 -16 -69 -169 -138 -340 -129 -322 -168 -419 -191 -470 -8 -16 -39 -95 -70
-175 -31 -80 -72 -185 -91 -234 -19 -48 -32 -91 -29 -95 8 -8 1421 -8 1429 0
5 5 -86 227 -149 365 -33 70 -109 257 -156 379 -27 72 -54 139 -59 150 -12 26
-119 289 -155 380 -15 39 -46 120 -70 180 -24 61 -55 140 -69 177 -14 36 -26
70 -26 75 0 4 -9 31 -19 58 -19 49 -19 49 -30 25z"/>
<path d="M44141 11790 c-17 -45 -31 -84 -31 -87 0 -3 -57 -148 -126 -322 -69
-174 -169 -424 -221 -556 -52 -132 -101 -253 -108 -270 -7 -16 -27 -68 -45
-114 -17 -46 -60 -150 -96 -230 -35 -80 -64 -149 -64 -153 0 -9 1377 -11 1431
-2 l36 6 -34 82 c-18 44 -54 131 -78 191 -24 61 -60 148 -80 195 -20 47 -47
110 -60 140 -12 30 -33 78 -45 105 -30 69 -83 197 -141 345 -28 69 -54 134
-59 145 -5 11 -21 49 -35 85 -14 36 -30 74 -35 85 -5 11 -21 52 -35 90 -15 39
-38 97 -52 130 -14 33 -36 92 -50 130 -14 39 -29 74 -33 78 -4 5 -22 -28 -39
-73z"/>
<path d="M49751 11838 c-57 -145 -145 -375 -162 -418 -29 -77 -68 -173 -139
-336 -33 -78 -60 -145 -60 -149 0 -7 -279 -711 -305 -770 -19 -43 -45 -107
-45 -111 0 -6 1436 -4 1442 2 3 2 -19 62 -49 132 -65 152 -79 187 -133 317
-23 55 -47 114 -54 130 -16 36 -97 242 -161 410 -25 66 -52 134 -59 150 -33
73 -200 503 -241 618 -9 26 -19 47 -21 47 -3 0 -8 -10 -13 -22z"/>
<path d="M53908 2777 c-19 -7 -28 -18 -28 -32 0 -13 -23 -45 -57 -78 -32 -31
-52 -57 -46 -57 6 0 16 7 23 15 11 13 15 13 22 3 7 -10 9 -10 5 2 -3 14 39 40
64 40 15 0 10 -30 -6 -36 -8 -4 -15 -12 -15 -20 0 -8 -9 -23 -20 -34 -11 -11
-15 -20 -9 -20 5 0 7 -5 3 -12 -4 -6 0 -16 9 -23 13 -9 14 -19 6 -56 -10 -42
-29 -77 -29 -51 0 15 -32 16 -47 1 -13 -13 -33 -4 -33 15 0 17 -88 20 -107 4
-9 -7 -13 -7 -13 1 0 6 4 11 10 11 5 0 14 9 20 20 16 30 0 24 -44 -15 -22 -19
-43 -35 -47 -35 -10 0 -39 -29 -39 -40 0 -8 90 -14 332 -25 l106 -5 1 198 c1
131 -2 192 -9 182 -7 -11 -10 -11 -10 -2 0 7 7 15 15 18 18 7 20 30 3 40 -7 4
-8 3 -4 -4 4 -7 2 -12 -3 -12 -6 0 -11 5 -11 10 0 12 -6 11 -42 -3z m32 -12
c0 -8 -4 -15 -10 -15 -5 0 -7 7 -4 15 4 8 8 15 10 15 2 0 4 -7 4 -15z m-26
-186 c-3 -5 -10 -7 -15 -3 -5 3 -7 10 -3 15 3 5 10 7 15 3 5 -3 7 -10 3 -15z
m-14 -55 c0 -8 -5 -12 -10 -9 -6 4 -8 11 -5 16 9 14 15 11 15 -7z m-11 -80
c-15 -18 -22 -13 -13 10 3 9 10 13 16 10 5 -3 4 -12 -3 -20z m-276 -51 c-7 -2
-21 -2 -30 0 -10 3 -4 5 12 5 17 0 24 -2 18 -5z m287 -19 c0 -2 -9 -4 -21 -4
-11 0 -18 4 -14 10 5 8 35 3 35 -6z"/>
<path d="M53870 2650 c0 -5 5 -10 11 -10 5 0 7 5 4 10 -3 6 -8 10 -11 10 -2 0
-4 -4 -4 -10z"/>
<path d="M53740 2584 c-9 -10 -10 -15 -3 -10 7 4 22 2 33 -4 13 -7 20 -7 20 0
0 5 -6 10 -14 10 -8 0 -16 5 -18 11 -2 7 -10 4 -18 -7z"/>
<path d="M53690 2505 c-10 -13 -9 -15 9 -15 11 0 21 4 21 9 0 18 -18 21 -30 6z"/>
<path d="M53805 2493 c2 -16 4 -31 4 -35 2 -13 31 -9 31 5 0 28 -13 57 -25 57
-9 0 -12 -10 -10 -27z"/>
<path d="M54472 2502 c0 -9 -3 -25 -7 -34 -5 -13 -2 -18 10 -18 12 0 15 -5 11
-16 -3 -9 -6 -24 -6 -35 0 -12 -5 -16 -15 -13 -9 4 -15 0 -15 -10 0 -14 17
-16 122 -16 l122 0 -32 29 c-49 46 -74 61 -99 61 -13 0 -22 5 -20 11 1 6 -15
22 -35 35 -32 20 -37 21 -36 6z"/>
<path d="M53550 2430 c-8 -5 -10 -10 -5 -10 6 0 17 5 25 10 8 5 11 10 5 10 -5
0 -17 -5 -25 -10z"/>
<path d="M54200 2274 c0 -10 5 -14 15 -11 8 4 17 2 20 -3 8 -13 45 -13 45 0 0
11 -7 14 -52 24 -22 5 -28 3 -28 -10z"/>
<path d="M53480 2246 c0 -22 3 -27 11 -19 8 8 8 16 0 30 -9 16 -10 14 -11 -11z"/>
<path d="M53481 2161 c2 -28 6 -48 11 -45 12 8 10 94 -2 94 -7 0 -10 -20 -9
-49z"/>
<path d="M54380 2120 c0 -5 5 -10 11 -10 5 0 7 5 4 10 -3 6 -8 10 -11 10 -2 0
-4 -4 -4 -10z"/>
<path d="M54060 1960 c0 -5 5 -10 10 -10 6 0 10 5 10 10 0 6 -4 10 -10 10 -5
0 -10 -4 -10 -10z"/>
<path d="M54220 1930 l-45 -7 48 -1 c26 -1 47 3 47 8 0 6 -1 9 -2 8 -2 0 -23
-4 -48 -8z"/>
<path d="M54098 1923 c6 -2 18 -2 25 0 6 3 1 5 -13 5 -14 0 -19 -2 -12 -5z"/>
<path d="M53810 1850 c0 -7 18 -10 45 -9 24 2 48 0 51 -4 7 -7 -45 -12 -75 -8
-7 2 -10 -2 -6 -8 3 -6 18 -12 33 -12 24 -2 24 -2 5 -6 -13 -2 -23 -9 -23 -14
0 -11 18 -47 32 -63 5 -6 20 -27 35 -46 14 -19 23 -27 19 -16 -7 20 11 49 25
40 10 -6 11 -3 13 86 l1 65 -77 3 c-51 2 -78 -1 -78 -8z m137 -122 c-3 -8 -6
-5 -6 6 -1 11 2 17 5 13 3 -3 4 -12 1 -19z"/>
<path d="M53945 1680 c-3 -5 -1 -10 4 -10 6 0 11 5 11 10 0 6 -2 10 -4 10 -3
0 -8 -4 -11 -10z"/>
</g>
</svg>
